<?xml version="1.0" encoding="utf-8"?>
<!-- Generator: Adobe Illustrator 27.0.0, SVG Export Plug-In . SVG Version: 6.00 Build 0)  -->
<svg version="1.1" id="Слой_1" xmlns="http://www.w3.org/2000/svg" xmlns:xlink="http://www.w3.org/1999/xlink" x="0px" y="0px"
	 viewBox="0 0 1680 268.3" style="enable-background:new 0 0 1680 268.3;" xml:space="preserve">
<style type="text/css">
	.st0{fill:#FFFFFF;}
	.st1{fill:#102D69;}
</style>
<g>
	<g>
		<path class="st0" d="M259.8,134.2c0-49-39.8-88.8-88.8-88.8s-88.8,39.8-88.8,88.8S121.9,223,171,223S259.8,183.2,259.8,134.2"/>
	</g>
	<rect x="144.5" y="86.8" class="st1" width="57.7" height="94"/>
	<g>
		<path class="st0" d="M168.3,130.6v-4.2c0,0,0.1,0,0.1,0c5.3,0,9-2.6,11.3-5.5c2.6-3.1,3.1-6.1,3.2-8.8h-14.6v-4.1h14.4
			c-0.4-2.8-1.4-5.5-3.1-7.6c-3.3-4.1-8-4.8-11.1-4.8l-8.2,0v74.5h8v-27.8h10.5v27.8h9.1v-12.9C188,140,182.5,130.6,168.3,130.6"/>
		<path class="st0" d="M199.4,174.7h-50.3V91.5h17.6c0.2,0,0.3,0,0.4,0h4.3c8.4,0,12,1.5,16,4.6c5.8,4.6,6.7,11.2,6.7,14.5
			c0,4.1-1.3,8.4-4.3,12c-1.6,1.9-4.1,4.5-8.1,6.1c12.8,4.5,17.7,14.8,17.7,30.1V174.7z M171,72.1c-34.3,0-62.2,27.8-62.2,62.2
			c0,34.3,27.8,62.2,62.2,62.2c34.3,0,62.2-27.8,62.2-62.2C233.2,99.9,205.3,72.1,171,72.1"/>
		<path class="st1" d="M152.2,198.8c-1.6-0.5-2.8-0.1-3.2,1.1c-0.3,1.1,0.4,2.1,2.3,2.6l2.8,0.8l1.1-3.7L152.2,198.8z M151.2,204.7
			c-1.5-0.4-2.7-0.1-3.1,1.1c-0.3,1.1,0.4,2,1.9,2.4l2.5,0.7l1-3.6L151.2,204.7z M154.2,211.7l-5.2-1.3c-1.5-0.4-2.6-1.3-3.2-2.3
			c-0.4-0.8-0.5-1.6-0.2-2.5c0.5-1.6,1.7-2.2,2.8-2.5c-1.4-1-2.3-2.2-1.7-4.1c0.7-2.4,3.1-3.1,6.1-2.3l5.3,1.5L154.2,211.7z"/>
		<path class="st1" d="M136.8,197.6c-1.6-1-2.1-2.2-1.4-3.4c0.8-1.4,2.1-1.5,3.7-0.6l1.9,1.1l-2.4,4L136.8,197.6z M140.2,191.6
			c-2.8-1.7-5.5-1.2-6.9,1.3c-1.4,2.5-0.4,4.9,2.3,6.5l1.9,1.1l-2.6,4.4l2.1,1.2l7.2-12.2L140.2,191.6z"/>
	</g>
	
		<rect x="121.2" y="191.3" transform="matrix(0.5751 -0.8181 0.8181 0.5751 -103.0409 186.7396)" class="st1" width="14.1" height="2.5"/>
	<g>
		<path class="st1" d="M94.6,127.1c-0.2,2,0.7,2.7,1.8,2.8c1.4,0.1,2.3-1.1,2.4-2.5l0.1-1.6l-4.2-0.3
			C94.7,126.1,94.6,126.6,94.6,127.1 M106.3,126.4l-5.1-0.5l-0.1,1.7l3.3,2.8c1.6,1.4,2,3.1,1.4,4.2l-2.1,0c0.3-0.8-0.2-1.9-0.8-2.5
			l-2.5-2.1c-0.5,1.1-1.8,2.6-4.2,2.4c-2.4-0.2-4.3-1.6-4-5.4c0-0.4,0.4-3.5,0.5-4.3l14,1.1L106.3,126.4z"/>
		<path class="st1" d="M117.2,178.3c1.6-0.3,3.2,0.1,4.4,1.4c1.9,2.1,1.6,5.1-0.4,6.9c-2,1.9-5,2-6.9-0.1c-1.2-1.3-1.5-2.9-1.1-4.4
			l-2.5-0.5c-0.4,2.2,0.1,4.5,1.9,6.4c2.9,3.2,7.5,3.2,10.4,0.5c2.9-2.7,3.3-7.2,0.4-10.4c-1.8-1.9-4.2-2.7-6.5-2.4L117.2,178.3z"/>
		<path class="st1" d="M101.7,147.8l-5.9-1.5l5.1-3.3c0.1,0.8,0.2,1.6,0.3,2.4C101.4,146.2,101.5,147,101.7,147.8 M92.7,145.6
			l0.4,2.3l15.2,3.9l-0.7-2.6l-3.5-0.9l0,0c-0.2-1.1-0.4-2.2-0.6-3.3c-0.2-1.1-0.3-2.2-0.5-3.3l0,0l3.1-1.9l-0.2-2.7L92.7,145.6z"/>
		<path class="st1" d="M107.8,157.8c0.7,1.8,1.4,3.5,2.2,5.2l-10.6,5.2c0.4,0.7,0.7,1.5,1.1,2.2l10.6-5.2c0.8,1.6,1.7,3.2,2.7,4.8
			l-10.6,5.3c0.4,0.7,0.9,1.4,1.3,2.1l10.7-5.2l2.1-1c-3.5-5.1-6.2-10.7-8.2-16.6l-2.1,1l-10.7,5.2c0.3,0.8,0.6,1.5,0.9,2.3
			L107.8,157.8z"/>
		<path class="st1" d="M240.5,113.6c2.6-1,4-3.6,3-6.2c-1-2.6-3.8-3.7-6.4-2.7c-2.6,1-4,3.6-3,6.2
			C235.1,113.5,237.9,114.5,240.5,113.6 M236.3,102.2c3.7-1.4,7.9,0.3,9.4,4.4c1.5,4.1-0.5,8-4.3,9.4c-3.7,1.4-7.9-0.3-9.4-4.4
			C230.5,107.5,232.5,103.6,236.3,102.2"/>
		<path class="st1" d="M241.4,151.5c2.7,0.5,5.3-1.1,5.8-3.9c0.5-2.8-1.4-5.1-4.1-5.6c-2.7-0.5-5.3,1.1-5.8,3.9
			C236.8,148.7,238.7,151,241.4,151.5 M243.5,139.6c3.9,0.7,6.7,4.3,5.9,8.6s-4.5,6.7-8.5,6c-3.9-0.7-6.7-4.3-5.9-8.6
			C235.8,141.3,239.6,138.9,243.5,139.6"/>
		<path class="st1" d="M230.1,99l1.5-4.6l8.6,1.2l-1.5-2.5l-7.5-0.9l-0.8-1.2l4.9-3.2l-1.5-2l-11.7,7.7l1.5,2l4.9-3.2l0.9,1.4
			l-1.5,4.2c-0.8,2.1-1,4.2,0.7,5.6l1.8-1.2C229.6,101.7,229.6,100.6,230.1,99"/>
		<path class="st1" d="M204.7,194.2l4.5,1.6l-1.4,8.5l2.5-1.5l1.1-7.5l1.2-0.8l3.1,5l2-1.4l-7.3-11.9l-2,1.4l3.1,5l-1.4,0.9
			l-4.1-1.6c-2.1-0.8-4.2-1.1-5.6,0.6l1.1,1.8C202,193.6,203.1,193.6,204.7,194.2"/>
	</g>
	<polygon class="st1" points="233.4,182.9 231.9,184.8 224.4,177.9 226.6,190.5 224.9,192.2 214.6,182.7 216.3,181 223.9,188 
		221.6,175.3 223.1,173.4 	"/>
	<polygon class="st1" points="201.1,207.4 198.9,208.3 195.8,198.6 191.5,210.6 189.2,211.2 184.9,197.9 187.3,197.3 190.4,207.1 
		194.7,194.9 196.9,194 	"/>
	<g>
		<path class="st1" d="M232,170.3c1.7,0.7,3.7,1.6,5.4,2.5l0-0.1c-1.3-1.2-8.4-9-8.4-9l0.9-1.9c0,0,10.3,1.2,12.1,1.7l0,0
			c-1.6-0.9-3.6-2-5.3-2.9l-5-2.8l0.9-2.4l12.2,7.2l-1.4,3.3c0,0-9.6-1-11.1-1.4l0,0.1c1.2,1,7.8,8.2,7.8,8.2l-1.8,3l-13.1-5.5
			l1.4-2.2L232,170.3z"/>
		<path class="st1" d="M250.1,130.8l-5.8,0.5l0,0c-0.1-1.3-0.1-2.7-0.3-4c-0.1-1.3-0.3-2.7-0.5-4l0,0l5.9-0.6l-0.4-2.5l-13.9,1.3
			l0.4,2.5l5.8-0.5l0.1,0c0.2,1.3,0.4,2.7,0.5,4c0.1,1.3,0.2,2.7,0.3,4l-0.1,0l-5.8,0.5l0.1,2.5l13.9-1.3L250.1,130.8z"/>
		<path class="st1" d="M224.4,75.1c-1.9-1.7-4.3-2.3-6.4-1.8l0.5,2.5c1.5-0.4,3.1-0.1,4.4,1.1c1.8,1.6,2,4,0.8,6
			c-1-1.1-2.1-2.1-3.2-3.1c-0.5-0.4-0.9-0.8-1.4-1.2l-1.4,1.7c0.5,0.4,0.9,0.8,1.4,1.2c1.1,1,2.2,2,3.2,3.1
			c-1.8,1.4-4.3,1.4-6.1-0.2c-1.3-1.2-1.8-2.8-1.5-4.4l-2.5-0.3c-0.3,2.3,0.5,4.6,2.4,6.4c3.2,2.9,7.7,2.5,10.4-0.5
			C227.6,82.6,227.6,78,224.4,75.1"/>
		<path class="st1" d="M153.3,64c-0.8-2.6-3.5-4.2-6.1-3.3c-2.7,0.9-3.8,3.6-3,6.2c0.8,2.6,3.5,4.2,6.1,3.3
			C152.9,69.4,154.1,66.7,153.3,64 M141.7,67.8c-1.2-3.8,0.7-7.9,4.8-9.2c4.1-1.3,8,0.9,9.3,4.7c1.2,3.8-0.7,7.9-4.8,9.2
			C146.8,73.8,142.9,71.6,141.7,67.8"/>
		<path class="st1" d="M137.7,74l-4.5-1.6l1.5-8.5l-2.5,1.4l-1.1,7.5l-1.2,0.7l-3.1-5l-2,1.4l7.3,11.9l2.1-1.4l-3-5l1.5-0.9l4.1,1.6
			c2.1,0.8,4.1,1.1,5.6-0.5l-1.1-1.8C140.4,74.6,139.3,74.5,137.7,74"/>
		<path class="st1" d="M124.7,85.2c-1.4,1.3-2.7,2.6-3.9,4l-8.9-7.7c-0.6,0.6-1.1,1.2-1.6,1.9l8.9,7.7c-1.2,1.4-2.3,2.9-3.4,4.4
			l-9-7.7c-0.5,0.7-1,1.3-1.4,2l9,7.8l1.8,1.5c3.4-5.2,7.4-9.9,12.1-14l-1.8-1.5l-9-7.8c-0.6,0.6-1.2,1.1-1.8,1.7L124.7,85.2z"/>
		<path class="st1" d="M181.7,64.3l3.4-5.1l1.3,5.9c-0.8-0.2-1.6-0.3-2.4-0.5C183.3,64.6,182.5,64.5,181.7,64.3 M186.8,56.6
			l-2.3-0.4l-8.8,13l2.6,0.2l2-3l0,0c1.1,0.2,2.2,0.3,3.3,0.5c1.1,0.2,2.2,0.4,3.3,0.7l0,0l0.7,3.5l2.6,0.7L186.8,56.6z"/>
		<path class="st1" d="M167.7,55.1l-5.3,0.4c-0.1,0-0.2,0-0.4,0l0.2,2.2l0,0.6c0.6,8.4-0.6,9.4-2,9.5c-0.3,0-0.6,0-0.8-0.1l-0.1,2
			c0.4,0.1,1.2,0.1,1.7,0.1c2.8-0.2,4.3-2.1,3.6-11.1l-0.1-1.3c0.2,0,0.5,0,0.7-0.1c1.4-0.1,2.8-0.2,4.2-0.2l0.9,11.8l2.5-0.2
			l-0.9-11.6l-0.2-2.2C170.3,55,169,55,167.7,55.1"/>
		<path class="st1" d="M173.9,206.5c0-1.6-1.3-2.8-2.8-2.8s-2.8,1.3-2.8,2.8s1.3,2.8,2.8,2.8S173.9,208.1,173.9,206.5"/>
		<path class="st1" d="M102.9,110c1.4,0.6,3.1-0.1,3.7-1.6c0.6-1.4-0.1-3.1-1.6-3.7c-1.4-0.6-3.1,0.1-3.7,1.6S101.5,109.4,102.9,110
			"/>
		<path class="st1" d="M201.1,68.5c-0.7,1.4-0.1,3.1,1.2,3.8c1.4,0.7,3.1,0.1,3.8-1.2c0.7-1.4,0.1-3.1-1.2-3.8
			C203.5,66.6,201.8,67.1,201.1,68.5"/>
	</g>
	<g>
		<path class="st0" d="M325.7,86.1l-11.4,35.6h-8.9V45.1h7.6v57.1l7.9-24.2l11.2-32.9h9.5v76.6h-7.7v-61L325.7,86.1z"/>
		<path class="st0" d="M358.8,87.2v34.5h-8.5V45.1h8.5v34.5h18.8V45.1h8.5v76.6h-8.5V87.2H358.8z"/>
		<path class="st0" d="M411.4,44.3c5.9,0,10.3,1.8,13.1,5.3c2.8,3.5,4.2,8.2,4.2,14v6.9h-8.1v-7.3c0-3.5-0.7-6.2-2.1-8.2
			c-1.4-1.9-3.7-2.9-6.8-2.9c-3.1,0-5.3,1-6.8,2.9c-1.5,1.9-2.2,4.7-2.2,8.2v40.5c0,3.5,0.7,6.2,2.2,8.2c1.5,1.9,3.7,2.9,6.8,2.9
			c3.1,0,5.4-1,6.8-2.9c1.4-1.9,2.1-4.7,2.1-8.2v-10h8.1v9.5c0,5.8-1.4,10.5-4.2,14c-2.8,3.5-7.2,5.3-13.1,5.3
			c-5.8,0-10.2-1.8-13-5.3c-2.8-3.5-4.2-8.2-4.2-14V63.5c0-2.9,0.3-5.6,1-7.9c0.7-2.4,1.8-4.4,3.2-6.1c1.4-1.7,3.2-3,5.4-3.9
			C405.9,44.7,408.5,44.3,411.4,44.3z"/>
		<path class="st0" d="M445.2,121.7V52.8h-14.1v-7.8h36.8v7.8h-14.1v68.8H445.2z"/>
		<path class="st0" d="M493.7,86.3l-11.3,35.3h-8.9V45.1h7.6v57.1l6.8-21.1l12.3-36h9.5v76.6H502v-61L493.7,86.3z"/>
		<path class="st0" d="M529.1,121.7V52.8H515v-7.8h36.8v7.8h-14.1v68.8H529.1z"/>
		<path class="st0" d="M582,104.8c-0.7,2.8-1.4,5.4-2.4,7.6c-0.9,2.2-2.1,4-3.7,5.5c-1.5,1.5-3.4,2.5-5.7,3.2
			c-2.3,0.7-5.2,0.9-8.7,0.8v-7.7c3.3,0.1,5.7-0.3,7.4-1.5c1.6-1.1,2.8-3.2,3.6-6.1l1.8-5l-17.6-56.5h8.5l7.8,26.6l5.3,19.3
			l4.5-19.3l6.9-26.6h8.9L582,104.8z"/>
		<path class="st0" d="M617.3,121.7V52.8h-14.1v-7.8h36.8v7.8h-14.1v68.8H617.3z"/>
		<path class="st0" d="M682.4,44.3c5.9,0,10.3,1.8,13.1,5.3c2.8,3.5,4.2,8.2,4.2,14v6.9h-8.1v-7.3c0-3.5-0.7-6.2-2.1-8.2
			c-1.4-1.9-3.7-2.9-6.8-2.9c-3.1,0-5.3,1-6.8,2.9c-1.5,1.9-2.2,4.7-2.2,8.2v40.5c0,3.5,0.7,6.2,2.2,8.2c1.5,1.9,3.7,2.9,6.8,2.9
			c3.1,0,5.4-1,6.8-2.9c1.4-1.9,2.1-4.7,2.1-8.2v-10h8.1v9.5c0,5.8-1.4,10.5-4.2,14c-2.8,3.5-7.2,5.3-13.1,5.3
			c-5.8,0-10.2-1.8-13-5.3c-2.8-3.5-4.2-8.2-4.2-14V63.5c0-2.9,0.3-5.6,1-7.9c0.7-2.4,1.8-4.4,3.2-6.1c1.4-1.7,3.2-3,5.4-3.9
			C677,44.7,679.5,44.3,682.4,44.3z"/>
		<path class="st0" d="M716.4,121.7V52.8h-14.1v-7.8H739v7.8h-14.1v68.8H716.4z"/>
		<path class="st0" d="M747.9,106.2l-3,15.4h-7.9l14.7-76.6h12.4l14.7,76.6h-8.5l-3-15.4H747.9z M749,98.9h17.1l-8.6-44.2L749,98.9z
			"/>
		<path class="st0" d="M791.7,121.7V52.8h-14.1v-7.8h36.8v7.8h-14.1v68.8H791.7z"/>
		<path class="st0" d="M841.7,86.3l-11.3,35.3h-8.9V45.1h7.6v57.1l6.8-21.1l12.3-36h9.5v76.6h-7.7v-61L841.7,86.3z"/>
		<path class="st0" d="M882.9,44.3c5.9,0,10.3,1.8,13.1,5.3c2.8,3.5,4.2,8.2,4.2,14v6.9h-8.1v-7.3c0-3.5-0.7-6.2-2.1-8.2
			c-1.4-1.9-3.7-2.9-6.8-2.9c-3.1,0-5.3,1-6.8,2.9c-1.5,1.9-2.2,4.7-2.2,8.2v40.5c0,3.5,0.7,6.2,2.2,8.2c1.5,1.9,3.7,2.9,6.8,2.9
			c3.1,0,5.4-1,6.8-2.9c1.4-1.9,2.1-4.7,2.1-8.2v-10h8.1v9.5c0,5.8-1.4,10.5-4.2,14c-2.8,3.5-7.2,5.3-13.1,5.3
			c-5.8,0-10.2-1.8-13-5.3c-2.8-3.5-4.2-8.2-4.2-14V63.5c0-2.9,0.3-5.6,1-7.9c0.7-2.4,1.8-4.4,3.2-6.1c1.4-1.7,3.2-3,5.4-3.9
			C877.4,44.7,880,44.3,882.9,44.3z"/>
		<path class="st0" d="M917.8,121.7V52.8h-14.1v-7.8h36.8v7.8h-14.1v68.8H917.8z"/>
		<path class="st0" d="M966.9,86.3l-11.3,35.3h-8.9V45.1h7.6v57.1l6.8-21.1l12.3-36h9.5v76.6h-7.7v-61L966.9,86.3z"/>
		<path class="st0" d="M1018.1,87.7c-1.4,2-3.1,3.5-5.3,4.5c-2.1,1-4.3,1.5-6.7,1.5c-2.6,0-4.8-0.5-6.7-1.4
			c-1.9-0.9-3.5-2.2-4.8-3.8c-1.2-1.6-2.2-3.6-2.8-5.8c-0.6-2.2-0.9-4.6-0.9-7.2V45.1h8.5v29.9c0,3.3,0.8,5.9,2.4,8
			c1.6,2,3.9,3.1,7,3.1c5.3,0,8.3-3,9.2-9v-32h8.4v76.6h-8.4V87.7z"/>
		<path class="st0" d="M1062.7,79v7.7h-18.7v27.2h23v7.8h-31.5V45.1h31.5v7.8h-23V79H1062.7z"/>
		<path class="st0" d="M1089.4,44.3c5.9,0,10.3,1.8,13.1,5.3c2.8,3.5,4.2,8.2,4.2,14v6.9h-8.1v-7.3c0-3.5-0.7-6.2-2.1-8.2
			c-1.4-1.9-3.7-2.9-6.8-2.9c-3.1,0-5.3,1-6.8,2.9c-1.5,1.9-2.2,4.7-2.2,8.2v40.5c0,3.5,0.7,6.2,2.2,8.2c1.5,1.9,3.7,2.9,6.8,2.9
			c3.1,0,5.4-1,6.8-2.9c1.4-1.9,2.1-4.7,2.1-8.2v-10h8.1v9.5c0,5.8-1.4,10.5-4.2,14c-2.8,3.5-7.2,5.3-13.1,5.3
			c-5.8,0-10.2-1.8-13-5.3c-2.8-3.5-4.2-8.2-4.2-14V63.5c0-2.9,0.3-5.6,1-7.9c0.7-2.4,1.8-4.4,3.2-6.1c1.4-1.7,3.2-3,5.4-3.9
			C1084,44.7,1086.5,44.3,1089.4,44.3z"/>
		<path class="st0" d="M1128.5,88.4l-4.5,7.6v25.7h-8.5V45.1h8.5v37l20.4-37h8.6L1133.6,80l20,41.7h-8.8L1128.5,88.4z"/>
		<path class="st0" d="M1180.3,86.3l-11.3,35.3h-8.9V45.1h7.6v57.1l6.8-21.1l12.3-36h9.5v76.6h-7.7v-61L1180.3,86.3z"/>
		<path class="st0" d="M1224,88.6l-12.8,33h-8.1l15.4-39.5l-14.4-37.1h8.9l11.8,30.6l11.9-30.6h8l-14.3,37.1l15.3,39.5h-9L1224,88.6
			z"/>
		<g>
			<path class="st0" d="M325.6,187.9l-11.3,35.3h-8.9v-76.6h7.6v57.1l6.8-21.1l12.3-36h9.5v76.6h-7.7v-61L325.6,187.9z"/>
			<path class="st0" d="M366.7,145.9c5.9,0,10.3,1.8,13.1,5.3c2.8,3.5,4.2,8.2,4.2,14v6.9h-8.1v-7.3c0-3.5-0.7-6.2-2.1-8.2
				c-1.4-1.9-3.7-2.9-6.8-2.9c-3.1,0-5.3,1-6.8,2.9c-1.5,1.9-2.2,4.7-2.2,8.2v40.5c0,3.5,0.7,6.2,2.2,8.2c1.5,1.9,3.7,2.9,6.8,2.9
				c3.1,0,5.4-1,6.8-2.9c1.4-1.9,2.1-4.7,2.1-8.2v-10h8.1v9.5c0,5.8-1.4,10.5-4.2,14c-2.8,3.5-7.2,5.3-13.1,5.3
				c-5.8,0-10.2-1.8-13-5.3c-2.8-3.5-4.2-8.2-4.2-14v-39.6c0-2.9,0.3-5.6,1-7.9c0.7-2.4,1.8-4.4,3.2-6.1c1.4-1.7,3.2-3,5.4-3.9
				C361.3,146.4,363.8,145.9,366.7,145.9z"/>
			<path class="st0" d="M408.3,145.9c5.9,0,10.3,1.8,13.1,5.3c2.8,3.5,4.2,8.2,4.2,14v6.9h-8.1v-7.3c0-3.5-0.7-6.2-2.1-8.2
				c-1.4-1.9-3.7-2.9-6.8-2.9c-3.1,0-5.3,1-6.8,2.9c-1.5,1.9-2.2,4.7-2.2,8.2v40.5c0,3.5,0.7,6.2,2.2,8.2c1.5,1.9,3.7,2.9,6.8,2.9
				c3.1,0,5.4-1,6.8-2.9c1.4-1.9,2.1-4.7,2.1-8.2v-10h8.1v9.5c0,5.8-1.4,10.5-4.2,14c-2.8,3.5-7.2,5.3-13.1,5.3
				c-5.8,0-10.2-1.8-13-5.3c-2.8-3.5-4.2-8.2-4.2-14v-39.6c0-2.9,0.3-5.6,1-7.9c0.7-2.4,1.8-4.4,3.2-6.1c1.4-1.7,3.2-3,5.4-3.9
				C402.9,146.4,405.4,145.9,408.3,145.9z"/>
			<path class="st0" d="M446.9,154.4l-1.8,49.8c-0.1,3.1-0.5,5.8-1,8.1c-0.5,2.3-1.4,4.3-2.5,6c-1.2,1.6-2.7,2.9-4.7,3.8
				c-1.9,0.9-4.4,1.3-7.3,1.3h-1.4v-7.8c1.8,0,3.2-0.2,4.3-0.7s2-1.1,2.6-2c0.6-0.9,1-2.1,1.3-3.4c0.2-1.4,0.4-3,0.4-4.8l2.1-58
				h31.2v76.6h-8.5v-68.8H446.9z"/>
			<path class="st0" d="M506.4,180.6v7.7h-18.7v27.2h23v7.8h-31.5v-76.6h31.5v7.8h-23v26.2H506.4z"/>
			<path class="st0" d="M555.4,233.8v-10.5h-31.3v10.5h-8.2v-18.1h4.9c1.3-1.5,2.2-3.1,2.6-4.9c0.4-1.8,0.7-3.9,0.8-6.2l3-57.9h30.8
				v69.1h5.8v18.1H555.4z M532.5,204.4c-0.1,2.8-0.5,5-0.9,6.8c-0.5,1.8-1.3,3.2-2.6,4.5h20.2v-61.3H535L532.5,204.4z"/>
			<path class="st0" d="M568.6,165.2c0-5.9,1.4-10.6,4.3-14.1c2.9-3.5,7.3-5.2,13.2-5.2c5.9,0,10.3,1.7,13.2,5.2
				c2.9,3.5,4.4,8.2,4.4,14.1v39.6c0,5.8-1.5,10.5-4.4,14c-2.9,3.5-7.3,5.3-13.2,5.3c-5.9,0-10.3-1.8-13.2-5.3
				c-2.9-3.5-4.3-8.2-4.3-14V165.2z M577,205.2c0,3.5,0.7,6.2,2.2,8.2c1.5,1.9,3.8,2.9,6.8,2.9c3.1,0,5.4-1,6.9-2.9
				c1.5-1.9,2.2-4.7,2.2-8.2v-40.5c0-3.5-0.7-6.2-2.2-8.2c-1.5-1.9-3.8-2.9-6.9-2.9c-3.1,0-5.3,1-6.8,2.9c-1.5,1.9-2.2,4.7-2.2,8.2
				V205.2z"/>
			<path class="st0" d="M630,146.7c6,0,10.2,1.4,12.8,4.2c2.6,2.8,3.8,7.1,3.8,12.7v3.6c0,4.1-0.7,7.4-2,9.9c-1.3,2.5-3.6,4.3-7,5.3
				c3.7,1,6.4,3,7.9,5.8c1.6,2.8,2.4,6.4,2.4,10.6v6.5c0,5.8-1.4,10.2-4.3,13.3c-2.8,3.1-7.3,4.7-13.2,4.7h-17.6v-76.6H630z
				 M627.9,179.2c3.4,0,6-0.7,7.7-2.1c1.7-1.4,2.6-4.1,2.6-8.1v-4.5c0-3.4-0.6-6-1.9-7.6c-1.3-1.6-3.4-2.5-6.5-2.5h-8.4v24.7H627.9z
				 M630.4,215.5c6.1,0,9.1-3.5,9.1-10.4v-6.8c0-4.3-0.9-7.3-2.6-8.9c-1.7-1.6-4.4-2.5-8.2-2.5h-7.4v28.6H630.4z"/>
			<path class="st0" d="M663.5,207.8l-3,15.4h-7.9l14.7-76.6h12.4l14.7,76.6h-8.5l-3-15.4H663.5z M664.5,200.5h17.1l-8.6-44.2
				L664.5,200.5z"/>
			<path class="st0" d="M710.5,188.8v34.5H702v-76.6h8.5v34.5h18.8v-34.5h8.5v76.6h-8.5v-34.5H710.5z"/>
			<path class="st0" d="M767.8,187.9l-11.3,35.3h-8.9v-76.6h7.6v57.1l6.8-21.1l12.3-36h9.5v76.6h-7.7v-61L767.8,187.9z"/>
			<path class="st0" d="M814.2,186.4l-11.9,36.9h-8.9v-76.6h7.6v57.1l7.1-22.1l11.9-35h9.5v76.6h-7.7v-61L814.2,186.4z M823.7,131
				c0,3.4-1,6-3.1,7.9c-2.1,1.9-5,2.8-8.7,2.8c-3.7,0-6.6-0.9-8.6-2.8c-2-1.9-3.1-4.5-3.2-7.9h5.4c0.1,2.1,0.8,3.6,2,4.4
				c1.2,0.8,2.7,1.2,4.5,1.2c1.8,0,3.3-0.4,4.5-1.2c1.2-0.8,1.9-2.3,2-4.4H823.7z"/>
			<path class="st0" d="M877.9,187.9l-11.3,35.3h-8.9v-76.6h7.6v57.1l6.8-21.1l12.3-36h9.5v76.6h-7.7v-61L877.9,187.9z"/>
			<path class="st0" d="M935.7,145.9c2.9,0,5.5,0.5,7.6,1.4c2.2,0.9,3.9,2.2,5.4,3.9c1.4,1.7,2.5,3.7,3.2,6.1c0.7,2.4,1,5,1,7.9
				v39.6c0,5.8-1.4,10.5-4.2,14c-2.8,3.5-7.1,5.3-13,5.3c-5.8,0-10.2-1.8-13-5.3c-2.8-3.5-4.2-8.2-4.2-14v-8.3h8v8.8
				c0,3.5,0.7,6.2,2.2,8.2c1.5,1.9,3.7,2.9,6.8,2.9c3.1,0,5.3-1,6.8-2.9c1.5-1.9,2.2-4.7,2.2-8.2v-17.7h-13.4v-7.7h13.4v-15.1
				c0-3.5-0.7-6.2-2.2-8.2c-1.5-1.9-3.7-2.9-6.8-2.9c-3.1,0-5.3,1-6.8,2.9c-1.5,1.9-2.2,4.7-2.2,8.2v6.1h-7.9v-5.7
				c0-2.9,0.3-5.6,1-7.9c0.7-2.4,1.7-4.4,3.1-6.1c1.4-1.7,3.2-3,5.3-3.9C930.2,146.4,932.7,145.9,935.7,145.9z"/>
			<path class="st0" d="M974.1,190l-4.5,7.6v25.7h-8.5v-76.6h8.5v37l20.4-37h8.6l-19.4,34.9l20,41.7h-8.8L974.1,190z"/>
			<path class="st0" d="M999.5,165.2c0-5.9,1.4-10.6,4.3-14.1c2.9-3.5,7.3-5.2,13.2-5.2c5.9,0,10.3,1.7,13.2,5.2
				c2.9,3.5,4.4,8.2,4.4,14.1v39.6c0,5.8-1.5,10.5-4.4,14c-2.9,3.5-7.3,5.3-13.2,5.3c-5.9,0-10.3-1.8-13.2-5.3
				c-2.9-3.5-4.3-8.2-4.3-14V165.2z M1007.9,205.2c0,3.5,0.7,6.2,2.2,8.2c1.5,1.9,3.8,2.9,6.8,2.9c3.1,0,5.4-1,6.9-2.9
				c1.5-1.9,2.2-4.7,2.2-8.2v-40.5c0-3.5-0.7-6.2-2.2-8.2c-1.5-1.9-3.8-2.9-6.9-2.9c-3.1,0-5.3,1-6.8,2.9c-1.5,1.9-2.2,4.7-2.2,8.2
				V205.2z"/>
			<path class="st0" d="M1051.3,188.8v34.5h-8.5v-76.6h8.5v34.5h18.8v-34.5h8.5v76.6h-8.5v-34.5H1051.3z"/>
			<path class="st0" d="M1086.7,165.2c0-5.9,1.4-10.6,4.3-14.1c2.9-3.5,7.3-5.2,13.2-5.2c5.9,0,10.3,1.7,13.2,5.2
				c2.9,3.5,4.4,8.2,4.4,14.1v39.6c0,5.8-1.5,10.5-4.4,14c-2.9,3.5-7.3,5.3-13.2,5.3c-5.9,0-10.3-1.8-13.2-5.3
				c-2.9-3.5-4.3-8.2-4.3-14V165.2z M1095.1,205.2c0,3.5,0.7,6.2,2.2,8.2c1.5,1.9,3.8,2.9,6.8,2.9c3.1,0,5.4-1,6.9-2.9
				c1.5-1.9,2.2-4.7,2.2-8.2v-40.5c0-3.5-0.7-6.2-2.2-8.2c-1.5-1.9-3.8-2.9-6.9-2.9c-3.1,0-5.3,1-6.8,2.9c-1.5,1.9-2.2,4.7-2.2,8.2
				V205.2z"/>
			<path class="st0" d="M1158.2,223.2h-8.2l-12.7-61v61.1h-7.4v-76.6h11.9l12.6,61.2l12.1-61.2h11.9v76.6h-8.1v-61.6L1158.2,223.2z"
				/>
			<path class="st0" d="M1207.3,187.9l-11.3,35.3h-8.9v-76.6h7.6v57.1l6.8-21.1l12.3-36h9.5v76.6h-7.7v-61L1207.3,187.9z"/>
			<path class="st0" d="M1245,190l-4.5,7.6v25.7h-8.5v-76.6h8.5v37l20.4-37h8.6l-19.4,34.9l20,41.7h-8.8L1245,190z"/>
			<path class="st0" d="M1296.8,187.9l-11.3,35.3h-8.9v-76.6h7.6v57.1l6.8-21.1l12.3-36h9.5v76.6h-7.7v-61L1296.8,187.9z"/>
			<path class="st0" d="M1355.1,145.9c5.9,0,10.3,1.8,13.1,5.3c2.8,3.5,4.2,8.2,4.2,14v2c0,3.9-0.8,7.3-2.4,10
				c-1.6,2.7-3.9,4.7-7.1,5.9c3.3,1.1,5.7,3,7.2,5.8c1.5,2.8,2.2,6.1,2.2,10v6c0,5.8-1.4,10.5-4.2,14c-2.8,3.5-7.2,5.3-13.1,5.3
				c-5.8,0-10.2-1.8-13-5.3c-2.8-3.5-4.2-8.2-4.2-14v-7.4h8v7.9c0,3.5,0.7,6.2,2.2,8.2c1.5,1.9,3.7,2.9,6.8,2.9c3.1,0,5.4-1,6.8-3
				s2.1-4.9,2.1-8.8v-6c0-7.6-3.3-11.4-9.8-11.4h-3.6v-7.7h4c2.8,0,5.1-0.9,6.8-2.7c1.7-1.8,2.6-4.4,2.6-7.8v-3.5
				c0-3.9-0.7-6.9-2.1-8.9s-3.7-3-6.8-3c-3.1,0-5.3,1-6.8,2.9c-1.5,1.9-2.2,4.7-2.2,8.2v5.1h-7.9v-4.8c0-5.9,1.4-10.6,4.1-14
				C1344.9,147.6,1349.2,145.9,1355.1,145.9z"/>
			<path class="st0" d="M1389.3,188.8v34.5h-8.5v-76.6h8.5v34.5h18.8v-34.5h8.5v76.6h-8.5v-34.5H1389.3z"/>
			<path class="st0" d="M1434,207.8l-3,15.4h-7.9l14.7-76.6h12.4l14.7,76.6h-8.5l-3-15.4H1434z M1435.1,200.5h17.1l-8.6-44.2
				L1435.1,200.5z"/>
			<path class="st0" d="M1480.1,188.8v34.5h-8.5v-76.6h8.5v34.5h18.8v-34.5h8.5v76.6h-8.5v-34.5H1480.1z"/>
			<path class="st0" d="M1536.4,187.9l-11.3,35.3h-8.9v-76.6h7.6v57.1l6.8-21.1l12.3-36h9.5v76.6h-7.7v-61L1536.4,187.9z"/>
			<path class="st0" d="M1581.8,186.4l-11.9,36.9h-8.9v-76.6h7.6v57.1l7.1-22.1l11.9-35h9.5v76.6h-7.7v-61L1581.8,186.4z
				 M1591.3,131c0,3.4-1,6-3.1,7.9c-2.1,1.9-5,2.8-8.7,2.8c-3.7,0-6.6-0.9-8.6-2.8c-2-1.9-3.1-4.5-3.2-7.9h5.4
				c0.1,2.1,0.8,3.6,2,4.4c1.2,0.8,2.7,1.2,4.5,1.2c1.8,0,3.3-0.4,4.5-1.2c1.2-0.8,1.9-2.3,2-4.4H1591.3z"/>
		</g>
	</g>
</g>
</svg>
